<svg width="79" height="55" viewBox="0 0 79 55" fill="none" xmlns="http://www.w3.org/2000/svg">
<path d="M16.3996 23.312L16.2716 15.76H7.88763C7.84496 18.96 7.82363 21.3493 7.82363 22.928L10.0316 23.216C10.0316 24.0907 9.78629 25.0187 9.29563 26H1.51963L1.23163 24.24C2.42629 23.7493 3.32229 23.44 3.91963 23.312C3.91963 23.248 3.82363 17.6053 3.63163 6.384L0.975625 5.552L1.23163 3.6H9.51963C9.86096 4.176 10.0636 5.01867 10.1276 6.128C9.03963 6.29867 8.32496 6.40533 7.98363 6.448C7.94096 9.22133 7.91963 11.3013 7.91963 12.688H16.2076L16.1116 6.384L13.4556 5.552L13.7116 3.6H21.9996C22.341 4.176 22.5436 5.01867 22.6076 6.128C21.5196 6.29867 20.805 6.40533 20.4636 6.448L20.3036 22.928L22.5116 23.216C22.5116 24.0907 22.2663 25.0187 21.7756 26H13.9996L13.7116 24.24C14.9063 23.7493 15.8023 23.44 16.3996 23.312ZM33.2681 11.92C32.5001 11.92 31.6255 12.112 30.6441 12.496C30.3668 12.9227 30.1001 13.68 29.8441 14.768C29.6095 15.8347 29.4921 16.912 29.4921 18C29.4921 20.0053 29.7908 21.4347 30.3881 22.288C30.9855 23.12 31.9455 23.536 33.2681 23.536C34.6121 23.536 35.5828 23.12 36.1801 22.288C36.7775 21.4347 37.0761 19.984 37.0761 17.936C37.0761 15.8667 36.7668 14.352 36.1481 13.392C35.5508 12.4107 34.5908 11.92 33.2681 11.92ZM33.2681 9.36C35.7641 9.36 37.7695 10.128 39.2841 11.664C40.8201 13.1787 41.5881 15.3013 41.5881 18.032C41.5881 20.7413 40.8308 22.8107 39.3161 24.24C37.8015 25.6693 35.7855 26.384 33.2681 26.384C30.7508 26.384 28.7348 25.6693 27.2201 24.24C25.7268 22.8107 24.9801 20.7413 24.9801 18.032C24.9801 15.3013 25.7375 13.1787 27.2521 11.664C28.7668 10.128 30.7721 9.36 33.2681 9.36ZM45.9109 26.384L45.2069 26.352C45.0789 26.1173 44.9082 25.68 44.6949 25.04C44.4815 24.4 44.3642 23.92 44.3429 23.6C44.2362 21.488 44.1189 17.8293 43.9909 12.624H41.7509L41.8469 10.8C42.3375 10.4587 42.9242 10.1493 43.6069 9.872L46.1989 5.776C47.0309 5.86133 47.6815 6.08533 48.1509 6.448L48.1189 9.488C49.4629 9.53067 50.7109 9.65867 51.8629 9.872C51.8629 10.7253 51.5962 11.6427 51.0629 12.624H48.0869C48.0015 17.104 47.9482 20.464 47.9269 22.704C48.7802 22.7893 49.9429 23.0347 51.4149 23.44L51.3829 25.104C51.0202 25.3387 50.2095 25.616 48.9509 25.936C47.7135 26.2347 46.7002 26.384 45.9109 26.384ZM61.6759 23.248C62.4012 23.248 63.8732 22.7467 66.0919 21.744C66.5612 22.4267 66.9132 23.216 67.1479 24.112C65.9745 24.8373 64.8225 25.4027 63.6919 25.808C62.5825 26.192 61.7932 26.384 61.3239 26.384C58.7425 26.384 56.7799 25.6693 55.4359 24.24C54.1132 22.8107 53.4519 20.784 53.4519 18.16C53.4519 15.5147 54.1132 13.392 55.4359 11.792C56.7585 10.1707 58.7212 9.36 61.3239 9.36C63.3932 9.36 64.9719 10.032 66.0599 11.376C67.1479 12.72 67.6919 14.4693 67.6919 16.624C67.6919 17.072 67.4359 17.584 66.9239 18.16L57.7079 18C57.7505 19.7067 58.0705 21.008 58.6679 21.904C59.2652 22.8 60.2679 23.248 61.6759 23.248ZM61.0359 12.016C60.2252 12.016 59.4679 12.176 58.7639 12.496C58.2732 13.52 57.9639 14.4693 57.8359 15.344C59.4999 15.28 61.3879 15.2373 63.4999 15.216C63.3932 13.0827 62.5719 12.016 61.0359 12.016ZM75.8429 2.224C76.2482 2.224 76.5042 2.23467 76.6109 2.256C76.6109 3.36533 76.4722 4.336 76.1949 5.168C76.1735 6.49067 76.1415 8.35733 76.0989 10.768C76.0135 16.0587 75.9495 20.112 75.9069 22.928L78.4029 23.216C78.4029 24.0907 78.1575 25.0187 77.6669 26H69.6989L69.4109 24.24C70.7335 23.7493 71.6935 23.4293 72.2909 23.28L71.6829 5.52C70.6802 5.41333 69.8375 5.25333 69.1549 5.04C69.1549 4.25067 69.2295 3.48267 69.3789 2.736C70.6375 2.39467 72.7922 2.224 75.8429 2.224ZM18.0065 41.176C18.5185 41.0907 18.9025 41.048 19.1585 41.048C19.4358 41.048 20.0225 41.1227 20.9185 41.272C21.0038 41.4427 21.1212 41.9867 21.2705 42.904C21.4412 43.8213 21.5265 44.568 21.5265 45.144C21.5265 45.6987 21.4625 46.3173 21.3345 47H5.8145L5.5265 45.24C6.57183 44.8133 7.46783 44.504 8.2145 44.312C8.2145 44.248 8.1185 38.6053 7.9265 27.384L5.2705 26.552L5.5265 24.6H13.8465C13.8252 24.6 13.8252 24.6213 13.8465 24.664C13.8892 24.7067 13.9318 24.8027 13.9745 24.952C14.0385 25.08 14.1025 25.24 14.1665 25.432C14.2945 25.7733 14.3798 26.3387 14.4225 27.128C13.3345 27.2987 12.6198 27.4053 12.2785 27.448C12.1932 34.808 12.1398 40.3013 12.1185 43.928H17.3025L18.0065 41.176ZM31.44 32.92C30.672 32.92 29.7973 33.112 28.816 33.496C28.5387 33.9227 28.272 34.68 28.016 35.768C27.7813 36.8347 27.664 37.912 27.664 39C27.664 41.0053 27.9627 42.4347 28.56 43.288C29.1573 44.12 30.1173 44.536 31.44 44.536C32.784 44.536 33.7547 44.12 34.352 43.288C34.9493 42.4347 35.248 40.984 35.248 38.936C35.248 36.8667 34.9387 35.352 34.32 34.392C33.7227 33.4107 32.7627 32.92 31.44 32.92ZM31.44 30.36C33.936 30.36 35.9413 31.128 37.456 32.664C38.992 34.1787 39.76 36.3013 39.76 39.032C39.76 41.7413 39.0027 43.8107 37.488 45.24C35.9733 46.6693 33.9573 47.384 31.44 47.384C28.9227 47.384 26.9067 46.6693 25.392 45.24C23.8987 43.8107 23.152 41.7413 23.152 39.032C23.152 36.3013 23.9093 34.1787 25.424 32.664C26.9387 31.128 28.944 30.36 31.44 30.36ZM53.1068 41.464C52.4028 41.912 51.6561 42.2427 50.8668 42.456C50.0774 42.648 49.3094 42.744 48.5628 42.744C47.8374 42.744 47.1974 42.6693 46.6428 42.52C46.4081 43.0747 46.1841 43.4907 45.9708 43.768C46.1414 44.024 47.9334 44.152 51.3468 44.152C53.4801 44.152 54.9841 44.4827 55.8588 45.144C56.2641 45.4213 56.6161 45.8587 56.9148 46.456C57.2348 47.0533 57.3948 47.8213 57.3948 48.76C57.3948 49.72 56.9254 50.68 55.9868 51.64C55.0481 52.6 53.8748 53.3573 52.4668 53.912C51.0588 54.4667 49.6614 54.744 48.2748 54.744C45.9708 54.744 44.1041 54.2853 42.6748 53.368C41.2454 52.472 40.5308 51.352 40.5308 50.008C40.5308 49.752 40.9041 49.1227 41.6508 48.12C42.3974 47.1387 42.8881 46.5733 43.1228 46.424C42.9094 46.3173 42.5361 45.9653 42.0028 45.368C41.4694 44.7493 41.1708 44.312 41.1068 44.056C41.3841 43.288 42.2374 42.328 43.6668 41.176C42.0028 40.1733 41.1708 38.488 41.1708 36.12C41.1708 34.2427 41.8108 32.8133 43.0908 31.832C44.3921 30.8507 46.0988 30.36 48.2108 30.36C50.3441 30.36 51.9548 30.648 53.0428 31.224C54.8561 30.904 56.1361 30.744 56.8828 30.744C57.6508 30.744 58.1521 30.7547 58.3868 30.776C58.3868 31.288 58.2588 31.8747 58.0028 32.536C57.7681 33.176 57.5441 33.624 57.3308 33.88L54.5788 33.24C55.1121 34.008 55.3787 35 55.3787 36.216C55.3787 37.432 55.1761 38.4987 54.7708 39.416C54.3654 40.312 53.8108 40.9947 53.1068 41.464ZM52.9468 50.616C53.0961 50.2107 53.1708 49.7413 53.1708 49.208C53.1708 48.6747 52.9361 48.28 52.4668 48.024C51.9974 47.7893 51.4428 47.672 50.8028 47.672C48.3068 47.672 46.6534 47.6507 45.8428 47.608C45.6721 47.9707 45.4588 48.4827 45.2028 49.144C44.9468 49.8267 44.8188 50.232 44.8188 50.36C44.8188 50.488 44.9041 50.6693 45.0748 50.904C45.2454 51.16 45.6081 51.4267 46.1628 51.704C46.7388 51.9813 47.4321 52.12 48.2428 52.12C49.0748 52.12 50.0454 51.928 51.1548 51.544C52.2641 51.16 52.8614 50.8507 52.9468 50.616ZM50.3548 33.624C49.8641 33.048 49.1708 32.76 48.2748 32.76C47.3788 32.76 46.6748 33.048 46.1628 33.624C45.6721 34.2 45.4268 35.0427 45.4268 36.152C45.4268 37.24 45.6828 38.0933 46.1948 38.712C46.7068 39.3307 47.4001 39.64 48.2748 39.64C50.1734 39.64 51.1228 38.4667 51.1228 36.12C51.1228 35.032 50.8668 34.2 50.3548 33.624ZM67.1588 32.92C66.3908 32.92 65.5161 33.112 64.5348 33.496C64.2574 33.9227 63.9908 34.68 63.7348 35.768C63.5001 36.8347 63.3828 37.912 63.3828 39C63.3828 41.0053 63.6814 42.4347 64.2788 43.288C64.8761 44.12 65.8361 44.536 67.1588 44.536C68.5028 44.536 69.4734 44.12 70.0708 43.288C70.6681 42.4347 70.9668 40.984 70.9668 38.936C70.9668 36.8667 70.6574 35.352 70.0388 34.392C69.4414 33.4107 68.4814 32.92 67.1588 32.92ZM67.1588 30.36C69.6548 30.36 71.6601 31.128 73.1748 32.664C74.7108 34.1787 75.4788 36.3013 75.4788 39.032C75.4788 41.7413 74.7214 43.8107 73.2068 45.24C71.6921 46.6693 69.6761 47.384 67.1588 47.384C64.6414 47.384 62.6254 46.6693 61.1108 45.24C59.6174 43.8107 58.8708 41.7413 58.8708 39.032C58.8708 36.3013 59.6281 34.1787 61.1428 32.664C62.6574 31.128 64.6628 30.36 67.1588 30.36Z" fill="#262626"/>
<path d="M41.4749 1.52513C40.108 0.158291 37.892 0.158291 36.5251 1.52513L14.2513 23.799C12.8844 25.1658 12.8844 27.3819 14.2513 28.7487C15.6181 30.1156 17.8342 30.1156 19.201 28.7487L39 8.94975L58.799 28.7487C60.1658 30.1156 62.3819 30.1156 63.7487 28.7487C65.1156 27.3819 65.1156 25.1658 63.7487 23.799L41.4749 1.52513ZM42.5 14L42.5 4L35.5 4L35.5 14L42.5 14Z" fill="#65AEF2"/>
</svg>
